<?xml version="1.0" encoding="UTF-8"?>
<svg id="Lager_1" data-name="Lager 1" xmlns="http://www.w3.org/2000/svg" viewBox="0 0 660.48 368.64">
  <defs>
    <style>
      .cls-1 {
        fill: #c9a84c;
      }
      .cls-2 {
        fill: #a8893d;
      }
      .cls-3 {
        fill: #f0ece4;
      }
    </style>
  </defs>
  <path class="cls-1" d="M0,215.52V0h660.48v215.75l-28.8,5.11-59.85,9.36c-51.99,8.13-104.21,12.47-156.74,14.32l-30.11,1.06-13.25.38-80.96.04-14.78-.53c-54.4-1.95-108.64-4.39-162.68-12.24l-75.82-11.01L0,215.52ZM364.91,198.06c4.76.49,8.98-2.13,10.14-6.98l8.73-36.65c12.54,21.9,24.84,43.19,38.45,64.02,2.41,3.69,6.64,4.54,10.49,3.09,4.1-1.73,7.91-4.62,9.86-8.7,1.59-3.32.32-6.81-1.4-9.89l-22.4-35.52-12.88-20.99c16.89-6.39,30.08-15.99,37.51-32.41,5.28-11.67,5.76-24.96.84-36.93-12.98-31.57-66.9-23.56-79.38-4.59-4.55,6.92-3.03,16.03,2.16,22.25,10.2-12.14,27.69-17.76,42.5-15.84,7.45,1.17,12.86,6.24,13.32,13.87,1.12,18.72-14.15,31.96-32.21,33.27l10.93-40.26c-5.47-.84-10.56.44-15.34,2.43-7.7,3.2-12.76,9.33-14.85,17.42l-15.99,62.13c-1.65,6.43-2.7,12.53-3.9,18.95-1.48,7.94,7.22,10.73,13.41,11.34ZM465.46,86.77c8.53-5.91,13.69-15.23,15.58-25.3,1.33-7.13-16.41-3.84-20.19-1.27.27,9.82-2.5,18.89-7.25,27.46,3.81,2.15,8.12,1.7,11.86-.89ZM158.08,189.98c-.17.22-.09,1.88.6,1.89,6,.11,20.2,1.05,24.58-1.89l8.36-33.22c21.56-28.37,34.08-60.42,41.39-95.31-8.34-4.22-18.1-3.69-25.95,1.21-3.59,24-10.61,49.44-22.55,70.29-1.96-15.08-2.43-29.1-3.1-43.67-.28-6.21-.45-12.09-1.38-18.05-.99-6.3-5.21-10.82-11.48-11.83-5.82-.94-11.78-.21-17.27,2.33,2.36,7.29,3.27,14.26,3.96,21.59l2.88,30.66c1.38,14.67,3.83,28.72,8.19,42.98l-8.24,33.01ZM242.89,190.82c12.28-2.12,21.06-10.45,25.2-21.7,1.04-2.84,2.17-5.53,2.94-8.58l10.49-41.72c2.66-10.57.78-22.27-10.66-26.46-4.84-1.77-9.8-2.14-15.02-1.89-17.81.84-28.72,13.53-32.91,29.97l-10.4,40.83c-2.63,10.32-3.24,23.11,8.35,27.87,6.89,2.83,14.39,3,22.01,1.69ZM312,190.02c3.52,1.13,7.52.24,11.47.63,3.06.3,6.6,1.29,9.16-.66l24.26-97.55c-8.14-2.41-17.74-1.89-24.01,3.5l-16.83,67.25c-.7,2.79-1.89,5.05-3.37,7.44-1.59,2.58-5.84,4.08-8.08,1.33-1.04-1.28-.77-4.43-.29-6.36l15.85-63.25c.67-2.66-.32-5.65-1.66-7.6-4.15-6.02-16.57-3.21-21.94.64.52,3.45.75,6.41-.08,9.72l-15.32,61.09c-1.17,4.66-1.45,9.22-.83,13.81.85,6.23,5.52,10.53,11.61,11.36,7.75,1.06,14.35-2.27,20.03-7.65l-.6,5.02c-.04.32.13,1.2.61,1.29ZM479.31,188.57c9.47-4.03,15.66-11.85,18.79-21.19,4.37-13.04,3.2-25.17-7.63-34.32l-9.61-8.13c-2.46-2.08-4.04-4.96-3.85-8.03.17-2.82,1.2-5.76,3.93-7.35,2.25-1.31,5.75-1.71,7.35.82,1.17,1.85.82,4.96.16,6.99l-1.88,5.76c8.36,1.34,20.44,1.75,23.04-8.58,2.33-9.28-.91-18.83-10.98-21.85s-20.88-1.99-29.78,3.64c-9.75,6.17-15.24,17.44-14.25,28.92.52,6.02,3.66,11.15,7.87,15.15l9.64,9.17c2.17,2.07,4.12,4.85,4.46,7.89.5,4.49-.74,9.06-3.11,12.68-2.09,3.19-5.81,4.02-9.19,2.51-3.57-3.81.29-15.27,2.88-19.5-8.34-2.5-21.05-1.68-24.3,7.55-3.36,9.68-3.99,24.24,7.77,28.52,9.13,3.32,19.44,3.32,28.69-.62Z"/>
  <path class="cls-2" d="M660.48,215.75v152.89H0v-153.12l37.49,6.73,75.82,11.01c54.04,7.85,108.27,10.28,162.68,12.24l14.78.53,80.96-.04,13.25-.38,30.11-1.06c52.52-1.85,104.75-6.19,156.74-14.32l59.85-9.36,28.8-5.11ZM60.94,336.03c.3.29.42.29.51-.03l2.39.46.48.07c11.72,1.72,28.06-.43,30.7-14.41l.45-.72c.11-.18-.22-.59-.31-.75v-2.4c.09-.16.42-.57.31-.76l-.45-.73c-2.47-17.6-31.87-12.07-32.66-20.85-.58-6.47,8.46-6.92,12.99-6.49.03.1.48.59.68.5l.76-.36c4.03.74,7.88,2.23,11.65,4.38l4.43-10.38c-9.95-5.59-22.08-6.8-32.7-3.05-6.91,2.44-11.3,8.11-11.56,15.29-.78,21.21,34.2,13.87,32.99,24.98-.24,2.23-2.05,3.92-4.6,4.5-8.54,1.95-17.25-.39-24.77-5.48l-4.99,10.31c3.9,2.69,8.84,4.59,13.7,5.92ZM181.92,336.45l.48.07c4.61.59,9.29.65,13.88-.02.29.07.42.07.52-.06,2.18-.4,6.27-1.77,8.44-3.02,8.12-4.69,10.79-14.78,5.58-22.61-6.72-10.1-28.92-7.41-30.33-14.6-.77-3.93,3.3-6.28,7.22-6.75,6.69-.79,12.86.94,18.94,4.46l4.49-10.36c-12.75-8.12-40.84-7.96-44.08,9.6-1.29,7.02,2.12,13.33,8.49,16.19,8.94,4.01,14.12,3.21,21.76,6.85,1.6.76,2.58,2.63,2.56,4.18-.06,4.92-7.18,5.69-11.27,5.56-6.7-.21-12.45-2.44-18.26-6.14l-4.66,10.12c4.91,3.82,10.5,5.55,16.23,6.5ZM351.8,336.46l.52.12c3.71.49,7.49.55,11.52-.05l.48-.08c4.37-.76,8.23-2.55,12.13-5.58l7.09,5.99,7.48-8.03-6.78-6.21c2.58-4.3,4.46-8.16,5.58-12.94l-10.33-3.23c-1.05,3.28-1.83,5.82-3.46,8.84l-9.8-9.05c7.66-4.3,12.86-9.53,10.67-17.97-2.7-10.41-18.53-11.92-27.68-7.2-5.06,2.61-7.58,7.61-6.89,13.21.48,3.94,2.63,7.05,5.61,10.09-3.7,2.11-6.8,4.22-9.22,7.42-4.78,6.3-3.88,15.05,2.35,20.14,2.97,2.43,6.8,3.65,10.74,4.53ZM517.44,278.91c-9.55,1.63-23.22,10.7-23.96,22.05l-.13.48-.35,1.92-.52.73c-.13.18.29.66.39.71-.17,1.9-.2,4.92.02,6.72-.19.1-.43.19-.35.3l.47.66c1.86,12.36,11.69,21.95,23.96,23.95-.01-.01.38.4.4.4.03,0,.45-.24.56-.31l2.4.4c.1.26.21.23.53.02,3.03.08,6.08,0,9.07-.41l.48-.08c11.98-1.88,21.49-11.17,23.81-22.74,2.52-12.57-3.01-24.98-13.97-31.25-6.66-3.81-14.07-4.5-21.36-3.91-.46-.03-1.27.13-1.44.36ZM564.47,279.41l-.16,56.46,13.6.14v-14.5s7.43-7.69,7.43-7.69c2.71,3.29,7.38,9.25,9.46,12.55.1.15.34.36.48.48l.52.96.44.48c1.58,1.71,4.47,5.4,6.23,7.67l16.06-.05-24.2-31.61,22.72-24.79-15.18-.12-23,24.44-.93-.03-.03-.86s.14-.23.48-.72v-21.44c-.01-.34-.64-1.2-.52-.93l-.02-.42s-.38-.36-.56-.53h-11.99c-.27.01-1.13.68-.85.54ZM136.32,336.58c.1.19.18.43.29.36l.67-.49c10.87-1.94,18.34-10.46,18.98-21.85l.08-35.17-13.43-.07-.12,34.04c-.01,3.66-1.59,7.57-4.49,9.64-4.46,3.2-10.94,2.99-15.38-.01-3.3-2.23-4.38-6-4.73-9.59.56-.73.48-2.25-.12-2.93v-31.13s-13.61,0-13.61,0l.08,32.62c.01,4.93,1.16,9.77,3.53,13.95,5.65,9.98,18.08,12.07,28.24,10.63ZM262.61,335.92c.1.55.19.54.48.07h1.34c.69.68,2.29.68,2.98,0h1.35s.75.41.98.56c2.03-.04,4.22.14,5.76-.59l.38-56.59-13.53.07-.02,21.76-25.37.02-.1-21.88-13.46.1v56.47s13.5.1,13.5.1l.05-23.24h25.28s.37,23.15.37,23.15ZM303.13,279.36h-13.63s.01,56.62.01,56.62h13.63s-.01-56.62-.01-56.62ZM486.73,290c.17.02.94-.11.92-.38l-.08-1.14c0-.17,0-.38.04-.48.24-.12.4-.14.41-.28l.03-.68c0-.13-.01-.37.04-.48.24-.11.41-.14.41-.28l.03-.68c0-.13,0-.38.04-.48.24-.12.4-.14.4-.28l.03-.68c0-.12.02-.36.04-.48l1.02-1.26c.2-.25-.26-.9-.39-1.14l.37-1.91-13.13.03-12.21,38.76-12.61-38.77h-12.89s-12.43,38.46-12.43,38.46l-12.09-38.46-14.02.03,18.28,56.55h14.2s12.25-37.63,12.25-37.63l12.22,37.61,14.46.03,14.67-45.97Z"/>
  <path class="cls-3" d="M275.5,335.95l-6.75.03h-4.32s-1.34,0-1.34,0c-.12,0-.33-.04-.48-.07l-.37-23.14h-25.28s-.05,23.23-.05,23.23l-13.5-.1v-56.47s13.46-.1,13.46-.1l.1,21.88,25.37-.02.02-21.76,13.53-.07-.38,56.59Z"/>
  <path class="cls-3" d="M577.87,279.4l.02.42.04,23.09.03.86.15,1.01c.02.14.44-.38.51-.51l.28-.48,23-24.44,15.18.12-22.72,24.79,24.2,31.61-16.06.05c-1.76-2.27-4.66-5.96-6.23-7.67l-.44-.48-.52-.96c-.08-.15-.34-.36-.48-.48-2.09-3.3-6.76-9.26-9.46-12.55l-7.42,7.69v14.5s-13.61-.14-13.61-.14l.16-56.46h13.4Z"/>
  <path class="cls-3" d="M118.07,310.51c0,.92.03,2.02.12,2.93.35,3.58,1.43,7.36,4.73,9.59,4.44,3,10.92,3.21,15.38.01,2.9-2.08,4.48-5.98,4.49-9.64l.12-34.04,13.43.07-.08,35.17c-.64,11.39-8.11,19.9-18.98,21.85l-.96.14c-10.17,1.44-22.59-.64-28.24-10.63-2.37-4.19-3.52-9.02-3.53-13.95l-.08-32.62h13.6s0,31.13,0,31.13Z"/>
  <path class="cls-3" d="M196.8,336.44c-.13.02-.36.04-.52.06-4.6.67-9.27.61-13.88.02l-.48-.07c-5.73-.95-11.32-2.68-16.23-6.5l4.66-10.12c5.81,3.7,11.57,5.93,18.26,6.14,4.09.13,11.21-.65,11.27-5.56.02-1.55-.97-3.42-2.56-4.18-7.64-3.65-12.82-2.84-21.76-6.85-6.37-2.86-9.78-9.17-8.49-16.19,3.23-17.56,31.33-17.72,44.08-9.6l-4.49,10.36c-6.09-3.52-12.26-5.25-18.94-4.46-3.92.46-7.99,2.81-7.22,6.75,1.41,7.19,23.62,4.5,30.33,14.6,5.2,7.82,2.54,17.91-5.58,22.61-2.17,1.25-6.25,2.62-8.44,3.02Z"/>
  <path class="cls-3" d="M76.8,289.55l-1.44-.14c-4.54-.43-13.57.02-12.99,6.49.79,8.78,30.19,3.25,32.66,20.85l.13,1.48v2.4l-.14,1.47c-2.64,13.98-18.97,16.13-30.7,14.41l-.48-.07-2.39-.46-.51.03c-4.86-1.32-9.81-3.22-13.7-5.92l4.99-10.31c7.52,5.09,16.23,7.44,24.77,5.48,2.55-.58,4.36-2.27,4.6-4.5,1.21-11.11-33.77-3.77-32.99-24.98.26-7.19,4.65-12.86,11.56-15.29,10.62-3.75,22.75-2.54,32.7,3.05l-4.43,10.38c-3.77-2.15-7.63-3.64-11.65-4.38Z"/>
  <rect class="cls-3" x="289.5" y="279.36" width="13.63" height="56.62"/>
  <path class="cls-1" d="M577.93,302.92l-.04-23.09c-.12-.27.51.59.51.93v21.44c-.32.49-.47.74-.47.72Z"/>
  <path class="cls-1" d="M577.87,279.4h-13.4c-.28.15.57-.52.85-.52h11.99c.18.16.58.54.56.52Z"/>
  <path class="cls-1" d="M275.5,335.95c-1.54.73-3.73.55-5.76.59-.24-.15-1.02-.58-.98-.56l6.75-.03Z"/>
  <path class="cls-1" d="M267.41,335.98c-.69.68-2.29.68-2.98,0h2.98Z"/>
  <path class="cls-1" d="M118.18,313.44c-.09-.91-.12-2.01-.12-2.93.59.69.67,2.2.12,2.93Z"/>
  <path class="cls-1" d="M95.16,318.24l-.13-1.48.45.73c.11.18-.22.59-.31.76Z"/>
  <path class="cls-1" d="M578.9,303.81l-.28.48c-.07.13-.49.65-.51.51l-.15-1.01.93.03Z"/>
  <path class="cls-1" d="M518.88,278.55c-.37.09-1.07.3-1.44.36.17-.23.98-.39,1.44-.36Z"/>
  <path class="cls-1" d="M76.8,289.55l-.76.36c-.2.09-.65-.4-.68-.5l1.44.14Z"/>
  <path class="cls-1" d="M95.02,322.11l.14-1.47c.09.16.43.57.31.75l-.45.72Z"/>
  <g>
    <path class="cls-3" d="M489.67,281.28c-.23.64-.53,1.76-.63,2.4-.02.12-.03.36-.04.48l-.44.96c-.05.1-.03.35-.04.48l-.44.96c-.05.11-.03.35-.04.48l-.44.96c-.05.1-.03.31-.04.48-.36.36-.68.97-.84,1.52l-14.67,45.97-14.46-.03-12.22-37.61-12.25,37.63h-14.2s-18.28-56.55-18.28-56.55l14.02-.03,12.09,38.46,12.43-38.47h12.89s12.61,38.78,12.61,38.78l12.21-38.76,13.13-.03-.37,1.91Z"/>
    <path class="cls-1" d="M489.04,283.68c.09-.64.39-1.76.63-2.4.13.24.59.9.39,1.14l-1.02,1.26Z"/>
    <path class="cls-1" d="M486.73,290c.16-.55.47-1.16.84-1.52l.08,1.14c.02.27-.75.4-.92.38Z"/>
    <path class="cls-1" d="M488.08,286.56l.44-.96-.03.68c0,.14-.17.17-.41.28Z"/>
    <path class="cls-1" d="M487.6,288l.44-.96-.03.68c0,.14-.17.16-.41.28Z"/>
    <path class="cls-1" d="M488.56,285.12l.44-.96-.03.68c0,.14-.16.17-.4.28Z"/>
  </g>
  <path class="cls-1" d="M137.28,336.44l-.67.49c-.1.07-.18-.17-.29-.36l.96-.14Z"/>
  <path class="cls-1" d="M595.29,326.84c-.14-.12-.39-.33-.48-.48.14.12.4.33.48.48Z"/>
  <path class="cls-1" d="M596.26,328.28l-.44-.48.44.48Z"/>
  <path class="cls-1" d="M60.94,336.03l.51-.03c-.09.32-.21.33-.51.03Z"/>
  <path class="cls-1" d="M262.61,335.92c.15.02.37.07.48.07-.29.47-.38.48-.48-.07Z"/>
  <path class="cls-1" d="M63.84,336.45l.48.07-.48-.07Z"/>
  <path class="cls-1" d="M181.92,336.45l.48.07-.48-.07Z"/>
  <path class="cls-1" d="M196.28,336.5c.15-.02.39-.04.52-.06-.1.13-.23.13-.52.06Z"/>
  <g>
    <path class="cls-3" d="M530.4,336.45l-.48.08c-3,.41-6.04.5-9.07.41-.16,0-.4,0-.53-.02l-2.4-.4-.96-.09c-12.28-2.01-22.1-11.59-23.96-23.95l-.12-.96c-.22-1.8-.19-4.82-.02-6.72l.13-1.44.35-1.92.13-.48c.74-11.35,14.41-20.42,23.96-22.05.37-.06,1.07-.27,1.44-.36,7.3-.59,14.71.1,21.36,3.91,10.96,6.27,16.49,18.68,13.97,31.25-2.32,11.57-11.83,20.86-23.81,22.74ZM541.39,307.63c0-9.76-7.91-17.67-17.67-17.67s-17.67,7.91-17.67,17.67,7.91,17.67,17.67,17.67,17.67-7.91,17.67-17.67Z"/>
    <path class="cls-1" d="M492.86,304.8c-.1-.05-.52-.53-.39-.71l.52-.73-.13,1.44Z"/>
    <path class="cls-1" d="M493,312.48l-.47-.66c-.08-.11.17-.19.35-.3l.12.96Z"/>
    <path class="cls-1" d="M517.92,336.53c-.12.06-.54.3-.56.31-.02,0-.41-.41-.4-.4l.96.09Z"/>
    <path class="cls-1" d="M493.35,301.44l.13-.48-.13.48Z"/>
    <path class="cls-1" d="M529.92,336.53l.48-.08-.48.08Z"/>
    <path class="cls-1" d="M520.32,336.92c.13.02.36.02.53.02-.31.21-.43.24-.53-.02Z"/>
  </g>
  <g>
    <g>
      <path class="cls-3" d="M364.91,198.06c-6.19-.61-14.88-3.41-13.41-11.34,1.19-6.42,2.24-12.52,3.9-18.95l15.99-62.13c2.08-8.1,7.15-14.22,14.85-17.42,4.78-1.99,9.87-3.27,15.34-2.43l-10.93,40.26c18.06-1.31,33.33-14.55,32.21-33.27-.46-7.63-5.86-12.69-13.32-13.87-14.81-1.92-32.3,3.7-42.5,15.84-5.19-6.22-6.71-15.33-2.16-22.25,12.48-18.97,66.4-26.98,79.38,4.59,4.92,11.96,4.44,25.26-.84,36.93-7.43,16.43-20.62,26.02-37.51,32.41l12.88,20.99,22.4,35.52c1.72,3.07,2.99,6.57,1.4,9.89-1.95,4.08-5.76,6.97-9.86,8.7-3.85,1.46-8.08.61-10.49-3.09-13.61-20.83-25.91-42.11-38.45-64.02l-8.73,36.65c-1.15,4.85-5.38,7.46-10.14,6.98Z"/>
      <path class="cls-3" d="M479.31,188.57c-9.25,3.94-19.55,3.94-28.69.62-11.76-4.28-11.13-18.84-7.77-28.52,3.26-9.22,15.97-10.05,24.3-7.55-2.59,4.23-6.45,15.7-2.88,19.5,3.37,1.51,7.1.68,9.19-2.51,2.37-3.62,3.6-8.19,3.11-12.68-.34-3.04-2.29-5.82-4.46-7.89l-9.64-9.17c-4.21-4-7.35-9.13-7.87-15.15-.99-11.47,4.49-22.75,14.25-28.92,8.9-5.63,19.85-6.62,29.78-3.64s13.31,12.57,10.98,21.85c-2.59,10.33-14.68,9.92-23.04,8.58l1.88-5.76c.66-2.03,1.01-5.14-.16-6.99-1.59-2.53-5.1-2.13-7.35-.82-2.73,1.59-3.76,4.53-3.93,7.35-.19,3.07,1.39,5.95,3.85,8.03l9.61,8.13c10.82,9.16,11.99,21.29,7.63,34.32-3.13,9.35-9.32,17.16-18.79,21.19Z"/>
      <path class="cls-3" d="M465.46,86.77c-3.74,2.59-8.04,3.04-11.86.89,4.75-8.57,7.52-17.63,7.25-27.46,3.77-2.57,21.52-5.86,20.19,1.27-1.88,10.07-7.05,19.39-15.58,25.3Z"/>
    </g>
    <g>
      <path class="cls-3" d="M332.63,189.99l-20.63.03c-.48-.09-.65-.97-.61-1.29l.6-5.02c-5.67,5.38-12.28,8.72-20.03,7.65-6.09-.84-10.76-5.13-11.61-11.36-.62-4.58-.34-9.14.83-13.81l15.32-61.09c.83-3.3.6-6.27.08-9.72,5.36-3.84,17.79-6.65,21.94-.64,1.34,1.94,2.33,4.94,1.66,7.6l-15.85,63.25c-.48,1.93-.75,5.08.29,6.36,2.23,2.75,6.49,1.25,8.08-1.33,1.47-2.39,2.67-4.65,3.37-7.44l16.83-67.25c6.27-5.39,15.87-5.92,24.01-3.5l-24.26,97.55Z"/>
      <path class="cls-2" d="M332.63,189.99c-2.56,1.95-6.1.96-9.16.66-3.95-.39-7.95.5-11.47-.63l20.63-.03Z"/>
    </g>
    <g>
      <path class="cls-3" d="M242.89,190.82c-7.62,1.31-15.13,1.14-22.01-1.69-11.59-4.76-10.97-17.55-8.35-27.87l10.4-40.83c4.19-16.44,15.1-29.12,32.91-29.97,5.22-.25,10.18.11,15.02,1.89,11.44,4.19,13.32,15.89,10.66,26.46l-10.49,41.72c-.77,3.05-1.89,5.74-2.94,8.58-4.14,11.25-12.93,19.59-25.2,21.7ZM236.24,172.77c6.95,3.37,10.22-7.35,11.4-11.99l11.62-45.91c.46-1.82-.03-4.55-1.37-5.41-2.79-1.79-6.32-.51-8.14,2.05s-3.05,5.86-3.89,9.15l-7.29,28.7c-1.56,6.13-3.02,11.92-4.26,18.12-.37,1.85.19,4.44,1.93,5.28Z"/>
      <g>
        <path class="cls-3" d="M183.27,189.98h-25.19s8.24-33.01,8.24-33.01c-4.36-14.26-6.81-28.31-8.19-42.98l-2.88-30.66c-.69-7.34-1.59-14.3-3.96-21.59,5.49-2.54,11.45-3.27,17.27-2.33,6.27,1.01,10.49,5.52,11.48,11.83.93,5.96,1.1,11.84,1.38,18.05.67,14.57,1.14,28.59,3.1,43.67,11.94-20.85,18.96-46.29,22.55-70.29,7.85-4.9,17.61-5.43,25.95-1.21-7.32,34.89-19.83,66.94-41.39,95.31l-8.36,33.22Z"/>
        <path class="cls-2" d="M183.27,189.98c-4.39,2.94-18.58,2-24.58,1.89-.7-.01-.77-1.67-.6-1.89h25.19Z"/>
      </g>
      <path class="cls-1" d="M236.24,172.77c-1.74-.84-2.3-3.43-1.93-5.28,1.24-6.21,2.7-11.99,4.26-18.12l7.29-28.7c.84-3.3,1.98-6.47,3.89-9.15s5.35-3.84,8.14-2.05c1.34.86,1.83,3.59,1.37,5.41l-11.62,45.91c-1.17,4.64-4.44,15.36-11.4,11.99Z"/>
    </g>
  </g>
  <circle class="cls-2" cx="523.72" cy="307.63" r="17.67"/>
  <path class="cls-2" d="M368.87,323.78c-5.5,4.46-16.85,4.59-19.48-1.68-1.74-4.14,1.44-8.57,5.96-10.76l13.52,12.44Z"/>
  <g>
    <path class="cls-3" d="M364.32,336.45l-.48.08c-4.03.6-7.81.54-11.52.05l-.52-.12c-3.94-.88-7.77-2.1-10.74-4.53-6.23-5.09-7.13-13.84-2.35-20.14,2.43-3.2,5.52-5.3,9.22-7.42-2.98-3.04-5.13-6.15-5.61-10.09-.69-5.6,1.84-10.6,6.89-13.21,9.15-4.72,24.98-3.22,27.68,7.2,2.19,8.44-3.01,13.67-10.67,17.97l9.8,9.05c1.63-3.01,2.41-5.56,3.46-8.84l10.33,3.23c-1.12,4.78-3,8.65-5.58,12.94l6.78,6.21-7.48,8.03-7.09-5.99c-3.9,3.03-7.76,4.82-12.13,5.58ZM365.27,289.69c-.95-1.62-3.14-2.47-5.26-2.35-3.4.18-6.32,2.64-5.5,6.14.56,2.37,2.25,4.23,4.19,5.92,3.94-1.43,9.06-5.47,6.57-9.71ZM368.87,323.78l-13.52-12.44c-4.52,2.19-7.7,6.62-5.96,10.76,2.63,6.27,13.98,6.15,19.48,1.68Z"/>
    <path class="cls-1" d="M351.8,336.46l.52.12-.52-.12Z"/>
    <path class="cls-1" d="M363.84,336.53l.48-.08-.48.08Z"/>
    <path class="cls-2" d="M365.27,289.69c2.49,4.24-2.63,8.28-6.57,9.71-1.93-1.7-3.63-3.55-4.19-5.92-.82-3.5,2.1-5.96,5.5-6.14,2.12-.11,4.31.74,5.26,2.35Z"/>
  </g>
</svg>
